# xmcd
#
# Track frame offsets:
# 150
# 30324
# 50748
# 79914
# 103351
# 127267
# 153256
# 178198
#
# Disc length: 2633 seconds
#
#
# Revision: 0
# Processed by: cddbd v1.5.2PL0 Copyright (c) Steve Scherf et al.
# Submitted via: FreeRIP 2.60 
#
DISCID=6c0a4708
DTITLE=Barrelhouse - Hard To Cover
DYEAR=1977
DGENRE=Blues
TTITLE0=Every Night Is Saturday night
TTITLE1=Ain't Good For Nothing
TTITLE2=Memories
TTITLE3=You Don't Have To Go
TTITLE4=Blue River Rising
TTITLE5=One More Lonely Night
TTITLE6=Don't Hold Your Breath
TTITLE7=Tennesee Flat Top Box
EXTD=
EXTT0=
EXTT1=
EXTT2=
EXTT3=
EXTT4=
EXTT5=
EXTT6=
EXTT7=
PLAYORDER=
